<svg version="1.1" id="Layer_1" xmlns="http://www.w3.org/2000/svg" xmlns:xlink="http://www.w3.org/1999/xlink" x="0px" y="0px"
	 viewBox="0 0 800 800" enable-background="new 0 0 800 800" xml:space="preserve">
<path fill="#FFFFFF" opacity="0.000000" stroke="none" 
	d="
M818.000000,1201.000000 
	C545.333313,1201.000000 273.166656,1201.000000 1.000000,1201.000000 
	C1.000000,801.000000 1.000000,401.000000 1.000000,1.000000 
	C401.000000,1.000000 801.000000,1.000000 1201.000000,1.000000 
	C1201.000000,401.000000 1201.000000,801.000000 1201.000000,1201.000000 
	C1073.500000,1201.000000 946.000000,1201.000000 818.000000,1201.000000 
M560.617859,832.871338 
	C570.517578,838.612976 580.376221,844.427124 590.330566,850.072510 
	C597.703308,854.253723 605.253906,854.276367 612.637756,850.088684 
	C623.314697,844.033447 633.933105,837.873840 644.534424,831.686768 
	C675.764648,813.460327 706.937256,795.135071 738.200928,776.966309 
	C778.502930,753.544983 818.814392,730.138611 859.252563,706.953979 
	C868.957214,701.389954 875.012329,694.097595 875.009094,682.483582 
	C874.981384,582.164062 875.024841,481.844452 874.858887,381.525208 
	C874.853271,378.100586 873.359619,374.413147 871.696289,371.311066 
	C868.089600,364.584534 860.819824,362.412628 854.714783,358.868622 
	C815.119995,335.883606 775.523315,312.901947 735.883484,289.994720 
	C694.374207,266.007141 652.835815,242.069473 611.252930,218.209732 
	C606.261108,215.345490 600.594666,213.672867 595.055115,216.113968 
	C588.409241,219.042603 581.991089,222.558411 575.698853,226.207275 
	C539.538635,247.176590 503.450195,268.269562 467.326874,289.302582 
	C444.677094,302.490540 422.013123,315.654144 399.347565,328.815033 
	C380.555542,339.726807 361.967743,351.016846 342.870819,361.366821 
	C331.805969,367.363708 326.874420,375.618286 326.897888,388.141205 
	C327.081970,486.460693 327.084473,584.780823 326.883087,683.100220 
	C326.860382,694.173523 331.645447,701.060059 341.033478,706.120300 
	C353.440094,712.807617 365.512054,720.116516 377.718048,727.175232 
	C397.679504,738.718994 417.633911,750.274841 437.589600,761.828491 
	C459.553040,774.544556 481.503021,787.283936 503.480377,799.975952 
	C522.298889,810.843689 541.147827,821.658997 560.617859,832.871338 
M215.166656,928.116089 
	C207.143570,923.964600 200.004684,925.474670 192.984924,932.895447 
	C192.984924,925.881165 192.765900,920.252563 193.054138,914.650146 
	C193.285217,910.158691 190.734467,909.817261 187.403824,909.998291 
	C184.382004,910.162476 180.914398,909.106262 180.961304,914.338928 
	C181.120956,932.153259 181.110382,949.970459 180.967758,967.785095 
	C180.928925,972.637085 184.078781,971.965393 187.028793,971.986877 
	C190.026413,972.008606 193.186646,972.537354 193.032700,967.727051 
	C192.819778,961.074097 192.825333,954.401978 193.087372,947.751892 
	C193.195374,945.011353 193.433243,941.656128 195.019699,939.755249 
	C196.878525,937.528076 200.210175,935.621643 203.021561,935.442993 
	C204.675140,935.337952 206.896378,938.653870 208.219101,940.823364 
	C209.077820,942.231689 208.946045,944.344910 208.966263,946.145569 
	C209.044769,953.137878 209.235565,960.141418 208.931976,967.121094 
	C208.725922,971.858643 211.323288,972.160950 214.867706,972.027649 
	C218.087006,971.906616 221.217880,972.430115 221.061813,967.389282 
	C220.783737,958.406738 221.150085,949.404907 220.909119,940.420227 
	C220.788544,935.923645 219.893188,931.459961 215.166656,928.116089 
M528.999939,958.485352 
	C528.994019,952.496399 529.135315,946.502869 528.949829,940.519470 
	C528.617126,929.784058 521.297302,923.803955 511.065186,926.332092 
	C507.655884,927.174438 504.661438,929.695862 500.994141,931.715820 
	C500.994141,926.158264 500.743530,920.843811 501.071075,915.565247 
	C501.348145,911.100220 499.628052,909.758667 495.324310,909.904419 
	C491.396790,910.037415 488.799011,910.157959 488.893372,915.406921 
	C489.198395,932.370178 489.119507,949.343689 488.925659,966.310242 
	C488.876923,970.576050 490.057037,972.284607 494.548767,972.082275 
	C500.898254,971.796204 500.889282,972.028442 501.010651,965.725525 
	C501.157501,958.101013 500.867706,950.413147 501.785706,942.876770 
	C502.464233,937.306396 506.625702,934.445740 510.968750,935.104980 
	C516.514160,935.946655 516.725037,940.548950 516.901611,944.614075 
	C517.204590,951.588318 517.272461,958.599182 516.908691,965.567017 
	C516.650085,970.519775 518.141052,972.349304 523.307922,972.145325 
	C527.530457,971.978638 529.544128,970.953796 529.039368,966.460205 
	C528.781128,964.160400 528.997925,961.807251 528.999939,958.485352 
M372.617157,972.271667 
	C380.289154,974.608093 386.580933,972.312073 391.523010,966.109863 
	C396.330444,972.737305 400.537201,974.616577 405.948914,972.331848 
	C407.247925,971.783569 408.540771,969.928589 408.747864,968.515076 
	C408.899689,967.478577 407.247589,966.198242 406.444366,964.996521 
	C405.283478,963.259888 403.346405,961.569214 403.181793,959.729919 
	C402.723450,954.607910 402.977142,949.419312 403.006531,944.257324 
	C403.045349,937.441101 401.734283,930.958008 395.010468,927.833557 
	C388.119171,924.631470 380.639465,924.703308 373.869629,928.278564 
	C369.797668,930.429016 366.576080,933.995911 366.783081,939.883179 
	C371.796631,939.236450 377.444611,942.683228 380.735443,935.680054 
	C381.283722,934.513184 384.737335,933.927856 386.588470,934.315369 
	C390.820892,935.201538 390.420227,939.322327 390.609161,942.422668 
	C390.655334,943.180176 387.620636,944.565125 385.860962,944.886292 
	C383.440308,945.328186 380.871155,944.870239 378.389954,945.082458 
	C370.565704,945.751831 365.788452,949.776489 364.242615,956.805847 
	C362.932129,962.765076 366.003662,968.924072 372.617157,972.271667 
M344.828094,944.081909 
	C344.528564,943.134399 344.234497,942.185181 343.928650,941.239685 
	C339.035309,926.113098 323.240601,920.734924 310.165161,930.000183 
	C302.704041,935.287048 301.698425,943.322754 301.983246,951.753967 
	C302.298615,961.088684 307.154816,969.125061 314.898621,971.762939 
	C322.873840,974.479553 335.225037,973.876160 341.105591,966.309448 
	C342.165527,964.945618 342.717316,963.186829 343.503693,961.610352 
	C341.880737,961.076477 340.151581,959.900696 338.657867,960.147888 
	C335.898743,960.604370 332.980408,961.436829 330.664093,962.938721 
	C326.507935,965.633606 320.949585,965.870300 318.028625,962.031921 
	C316.367493,959.849243 316.123108,956.588257 315.240753,953.812866 
	C317.458557,953.209045 319.656342,952.192688 321.898163,952.083984 
	C327.208130,951.826416 332.539062,952.009094 337.861450,951.996765 
	C345.006653,951.980225 345.006622,951.973328 344.828094,944.081909 
M747.803528,926.950562 
	C737.397156,931.131287 733.703003,937.773865 734.008789,951.755188 
	C734.213013,961.093201 739.157898,969.129639 746.903564,971.764282 
	C754.889099,974.480591 767.227173,973.875061 773.111267,966.303162 
	C774.170715,964.939819 774.718323,963.178711 775.502258,961.601257 
	C773.876465,961.070435 772.144104,959.898804 770.648071,960.147888 
	C767.889160,960.607056 764.973267,961.443848 762.655701,962.945740 
	C758.501526,965.637695 752.931335,965.864990 750.019592,962.023438 
	C748.362244,959.836731 748.121521,956.576233 747.242920,953.799316 
	C749.464905,953.200012 751.669861,952.172607 753.912048,952.083557 
	C760.057373,951.839661 766.221741,951.865112 772.371765,952.033997 
	C775.799133,952.128113 777.303223,950.877014 776.992615,947.402771 
	C775.600769,931.832520 767.007385,923.169922 747.803528,926.950562 
M1085.040527,946.055603 
	C1084.917847,937.340454 1081.728760,930.085754 1073.086914,927.347534 
	C1064.105225,924.501465 1054.995239,924.577332 1047.569092,931.950012 
	C1041.679810,937.796936 1041.634155,945.197815 1041.955933,952.791260 
	C1042.412109,963.554565 1049.164307,971.694092 1059.000488,972.929321 
	C1071.997437,974.561523 1081.329346,969.304626 1084.257324,958.174438 
	C1085.201416,954.585999 1084.855225,950.658081 1085.040527,946.055603 
M590.000000,962.430908 
	C589.993469,952.099976 589.827026,941.765564 590.047852,931.439514 
	C590.158447,926.270081 586.791199,927.100464 583.689453,926.994629 
	C580.444336,926.883972 577.733459,926.970215 577.947205,931.564209 
	C578.225647,937.549500 578.347900,943.586365 577.864746,949.546448 
	C577.566284,953.227539 576.514648,957.065002 574.826294,960.327942 
	C573.924072,962.071594 570.813538,963.839844 568.956848,963.600769 
	C567.024231,963.351868 565.082825,960.920105 563.758728,959.016174 
	C562.924683,957.817017 563.049377,955.835815 563.033508,954.202515 
	C562.959167,946.538330 562.922913,938.872375 563.007446,931.208557 
	C563.039551,928.304932 562.023682,926.797852 558.955078,927.011658 
	C557.628967,927.104004 556.279541,927.123962 554.959473,926.990845 
	C551.353821,926.627197 549.827698,928.015564 549.952148,931.795837 
	C550.165955,938.287231 549.874146,944.794495 550.049622,951.288147 
	C550.152161,955.084045 550.495300,958.913208 551.180115,962.644836 
	C552.358521,969.065979 557.415344,973.581665 563.811340,972.791016 
	C568.560791,972.203979 573.081543,969.766296 577.694031,968.156494 
	C578.884644,971.971069 580.547485,972.801392 586.850830,971.951660 
	C591.830566,971.280334 589.311523,967.406616 589.981140,964.900391 
	C590.105835,964.433716 589.999573,963.905396 590.000000,962.430908 
M639.255920,926.012634 
	C632.992920,925.229065 628.203613,928.078796 624.220398,932.996277 
	C621.863342,926.510498 619.680176,925.725159 612.000000,927.714233 
	C612.000000,934.242004 611.998474,940.672607 612.000427,947.103149 
	C612.002441,953.761719 612.240417,960.431091 611.932373,967.075195 
	C611.715149,971.760437 614.227783,972.089050 617.819763,972.054382 
	C621.451843,972.019409 624.331909,972.024841 624.079529,966.937439 
	C623.733582,959.963745 623.861877,952.954407 624.073364,945.968994 
	C624.260376,939.791321 628.646606,934.960388 633.516785,935.075012 
	C637.522705,935.169434 639.941223,939.116882 639.986084,945.798035 
	C640.035278,953.122131 640.169373,960.450928 639.969360,967.769592 
	C639.837036,972.612427 643.049316,971.977905 646.011414,971.986572 
	C648.992676,971.995300 652.138062,972.569519 652.033936,967.747009 
	C651.832886,958.429382 652.197510,949.097168 651.894897,939.785034 
	C651.636658,931.837036 647.608459,927.483093 639.255920,926.012634 
M892.508972,970.163513 
	C898.792297,965.820984 900.957336,959.107239 897.737488,952.892822 
	C895.232056,948.057129 890.388550,946.445068 885.536133,945.093140 
	C881.553833,943.983582 877.480408,943.164062 873.575439,941.838684 
	C872.513672,941.478333 871.438782,939.827576 871.251343,938.630981 
	C871.094849,937.632385 871.943176,936.036804 872.840027,935.391663 
	C876.113342,933.036438 882.823669,933.720337 885.872192,936.456421 
	C889.746521,939.933716 892.895203,939.985718 897.486877,936.648499 
	C893.140137,925.518066 871.096130,921.642395 863.020874,930.600464 
	C862.584290,931.084778 862.275513,931.690063 861.939087,932.257874 
	C857.014465,940.569336 859.756836,948.611389 868.903198,951.779724 
	C873.891479,953.507629 879.165955,954.404297 884.171021,956.092224 
	C885.606384,956.576233 887.039062,958.348450 887.542786,959.843506 
	C887.854065,960.767456 886.697876,962.625000 885.698242,963.467590 
	C882.898682,965.827148 872.861267,965.987793 871.136780,963.062500 
	C867.398743,956.721619 863.001953,959.641968 858.197876,960.818420 
	C859.043152,965.508484 861.168640,968.900757 865.315247,970.619019 
	C874.138062,974.274902 883.021118,974.274597 892.508972,970.163513 
M691.521362,915.135742 
	C686.868591,914.184509 684.409424,915.893250 683.797974,920.791443 
	C683.313965,924.668579 681.630676,927.684448 676.686951,927.271790 
	C675.915283,927.207336 674.243713,929.679626 674.238953,930.983459 
	C674.234131,932.295349 675.764709,934.718262 676.665894,934.738647 
	C680.796753,934.832214 681.069519,937.230408 681.021423,940.364014 
	C680.929443,946.355530 680.815247,952.358093 681.075806,958.340149 
	C681.287231,963.192688 681.948059,968.274475 686.864807,970.804382 
	C693.700806,974.321655 701.062622,973.444092 708.290100,972.226868 
	C711.898315,971.619263 711.289429,968.447449 710.650269,966.251160 
	C710.352173,965.226685 707.998413,964.395813 706.494507,964.232727 
	C704.751770,964.043823 702.915344,964.941223 701.126221,964.914734 
	C696.948425,964.852905 693.642395,963.748108 693.757812,958.449463 
	C693.923645,950.837708 693.800171,943.219666 693.800171,934.988708 
	C697.216492,934.988708 700.674377,934.952637 704.131165,935.000305 
	C706.836426,935.037659 708.976624,934.872009 709.036987,931.145264 
	C709.101501,927.167358 706.857544,926.911377 703.918945,926.992249 
	C701.424255,927.060974 698.924683,926.934326 696.428589,926.976257 
	C693.865112,927.019226 693.029907,925.993713 693.155823,923.320374 
	C693.280518,920.674805 692.562561,917.989624 691.521362,915.135742 
M449.993622,926.981323 
	C447.529449,927.053528 445.769714,926.623352 446.176636,923.384216 
	C446.495636,920.845093 446.240601,918.233826 446.240601,915.791687 
	C438.808533,914.234680 438.662628,914.307556 436.850250,920.982300 
	C435.891388,924.513794 434.791473,927.606323 430.013184,927.240234 
	C429.116608,927.171631 427.206787,929.490723 427.255493,930.644958 
	C427.317413,932.111267 428.829865,934.675232 429.839569,934.736267 
	C433.616516,934.964478 434.071075,936.998474 434.022400,940.025024 
	C433.923431,946.178284 433.808716,952.343445 434.083221,958.486633 
	C434.291748,963.152466 434.928192,968.097046 439.553741,970.620972 
	C446.490326,974.406006 454.016541,973.473022 461.395508,972.166870 
	C465.024902,971.524414 464.238129,968.299683 463.627808,966.137817 
	C463.349487,965.151917 460.917633,964.418762 459.384796,964.240845 
	C457.811890,964.058105 456.143280,964.930115 454.517914,964.924866 
	C450.179749,964.910767 446.637543,963.905579 446.735321,958.356445 
	C446.869293,950.753296 446.768768,943.145996 446.768768,934.978699 
	C450.443298,934.978699 454.075623,934.905151 457.703369,935.002441 
	C460.496399,935.077393 462.029053,934.265869 462.018433,931.075378 
	C462.008301,928.031860 460.796722,926.861389 457.854401,927.000305 
	C455.531189,927.109985 453.197754,927.002991 449.993622,926.981323 
M138.328735,951.523315 
	C138.328735,946.183716 138.328735,940.844116 138.328735,934.977661 
	C142.475845,934.977661 146.117325,934.896912 149.753311,935.003540 
	C152.602798,935.087158 154.021896,934.159180 154.019394,931.016541 
	C154.016922,927.906555 152.667969,926.860535 149.786102,927.002441 
	C147.792633,927.100708 145.777252,926.859802 143.793503,927.027954 
	C139.836182,927.363403 137.318039,926.634705 138.281586,921.700745 
	C138.665985,919.732361 138.054688,917.569580 137.904968,915.604248 
	C130.582993,914.414246 130.550842,914.405884 128.902786,920.723572 
	C127.927841,924.460938 126.792786,927.714966 121.761917,927.264587 
	C120.971718,927.193848 119.263489,929.618652 119.239174,930.913208 
	C119.214394,932.232727 120.715439,934.703125 121.597191,934.725281 
	C125.654892,934.827087 126.091545,937.084229 126.028122,940.298889 
	C125.909866,946.292786 125.813904,952.299316 126.074821,958.284668 
	C126.286263,963.135071 126.920746,968.226074 131.823639,970.781372 
	C138.654846,974.341614 146.026276,973.423523 153.258759,972.242859 
	C156.861832,971.654663 156.381714,968.439209 155.636536,966.299744 
	C155.252289,965.196472 152.691101,964.518799 151.025711,964.291077 
	C149.460800,964.076965 147.616547,965.263916 146.187103,964.842957 
	C143.713104,964.114563 140.360153,963.188354 139.391907,961.307373 
	C138.081863,958.762329 138.674744,955.237793 138.328735,951.523315 
M1008.999939,948.494263 
	C1008.990356,942.673950 1008.931213,936.853149 1008.993713,931.033630 
	C1009.021729,928.420410 1008.161499,926.970520 1005.287659,927.015686 
	C999.635315,927.104614 993.969788,926.868958 988.336243,927.208252 
	C987.184448,927.277527 985.469421,929.132324 985.183289,930.423157 
	C984.184570,934.929871 987.364929,935.343323 990.595276,934.955200 
	C995.585205,934.355652 997.638062,936.217041 997.061951,941.333679 
	C996.710693,944.453613 997.094543,947.649231 996.976318,950.804321 
	C996.822449,954.911194 997.814331,959.944763 995.794556,962.794312 
	C994.396301,964.766968 988.745300,963.915649 984.989624,963.967529 
	C981.918335,964.010071 980.966614,965.325684 980.993774,968.228455 
	C981.020447,971.073120 982.291565,972.005798 984.948914,971.994019 
	C996.589233,971.942688 1008.230286,971.926453 1019.870300,972.007996 
	C1022.821228,972.028687 1024.006470,970.939209 1024.018433,967.910767 
	C1024.030884,964.711060 1022.474548,963.885132 1019.693481,964.002319 
	C1017.702026,964.086243 1015.694641,963.874756 1013.709778,964.014343 
	C1010.364929,964.249573 1008.772278,963.010803 1008.976074,959.466309 
	C1009.166504,956.151733 1009.005981,952.816895 1008.999939,948.494263 
M255.145370,971.913757 
	C256.089935,970.478210 257.722534,969.100708 257.849670,967.596069 
	C258.226807,963.131958 257.622559,958.575928 258.102020,954.131287 
	C259.359924,942.470276 262.072418,936.287598 273.346252,936.041931 
	C275.610077,935.992554 277.882477,936.339417 280.454407,936.525513 
	C280.651672,935.013428 280.922058,933.735596 280.968475,932.449707 
	C281.194000,926.201172 281.014374,926.325928 274.726074,925.930969 
	C267.637817,925.485657 261.581451,926.867065 257.742645,934.076050 
	C255.548111,926.559631 251.562622,925.045349 244.793365,928.158569 
	C245.200684,934.192993 245.780472,940.107178 245.952972,946.033203 
	C246.156311,953.019165 246.132111,960.018433 245.958282,967.005798 
	C245.870270,970.543396 246.934509,972.418213 250.749054,972.004700 
	C251.901489,971.879822 253.077484,971.972351 255.145370,971.913757 
M813.985901,948.686584 
	C815.526001,945.458130 816.251099,940.636719 818.780823,939.342346 
	C823.618408,936.867310 829.483032,936.399475 835.660950,934.921692 
	C835.631348,935.112061 835.909729,933.997375 835.962097,932.872131 
	C836.270813,926.245972 836.053101,926.358643 829.646790,925.920410 
	C822.543091,925.434326 816.640198,927.092285 812.669128,933.979248 
	C810.541260,926.431641 808.016357,925.394165 799.801575,927.877014 
	C800.202515,933.983398 800.773926,940.051208 800.954102,946.130615 
	C801.156311,952.952087 801.264709,959.797241 800.917969,966.606812 
	C800.678589,971.307556 802.807922,972.096313 806.853699,972.098328 
	C811.030396,972.100342 813.327026,971.409302 813.117493,966.398499 
	C812.883423,960.799438 813.601868,955.160583 813.985901,948.686584 
M936.881042,959.084045 
	C936.138794,959.379944 934.772339,959.636047 934.750610,959.977783 
	C934.523682,963.545776 934.114624,967.199463 934.739929,970.651184 
	C934.884216,971.447632 938.763428,971.649963 940.947388,971.960205 
	C942.074402,972.120239 943.391541,972.227539 944.369751,971.791321 
	C945.368835,971.345947 946.566833,970.328735 946.803040,969.350708 
	C948.773010,961.193542 946.987000,958.974731 938.776550,959.013733 
	C938.446167,959.015320 938.115723,959.026978 936.881042,959.084045 
M999.000000,918.805420 
	C1001.310669,918.846863 1003.664001,919.162537 1005.913574,918.811829 
	C1007.006531,918.641479 1008.683044,917.266724 1008.732056,916.363159 
	C1008.838440,914.403381 1008.349304,910.815247 1007.606812,910.683105 
	C1004.476868,910.125732 1001.164368,910.593506 997.918701,910.686157 
	C997.999573,913.302124 998.080505,915.918030 999.000000,918.805420 
z"/>
<path fill="#ffffff" opacity="0.000000" stroke="none" 
	d="
M560.300598,832.684387 
	C541.147827,821.658997 522.298889,810.843689 503.480377,799.975952 
	C481.503021,787.283936 459.553040,774.544556 437.589600,761.828491 
	C417.633911,750.274841 397.679504,738.718994 377.718048,727.175232 
	C365.512054,720.116516 353.440094,712.807617 341.033478,706.120300 
	C331.645447,701.060059 326.860382,694.173523 326.883087,683.100220 
	C327.084473,584.780823 327.081970,486.460693 326.897888,388.141205 
	C326.874420,375.618286 331.805969,367.363708 342.870819,361.366821 
	C361.967743,351.016846 380.555542,339.726807 399.347565,328.815033 
	C422.013123,315.654144 444.677094,302.490540 467.326874,289.302582 
	C503.450195,268.269562 539.538635,247.176590 575.698853,226.207275 
	C581.991089,222.558411 588.409241,219.042603 595.055115,216.113968 
	C600.594666,213.672867 606.261108,215.345490 611.252930,218.209732 
	C652.835815,242.069473 694.374207,266.007141 735.883484,289.994720 
	C775.523315,312.901947 815.119995,335.883606 854.714783,358.868622 
	C860.819824,362.412628 868.089600,364.584534 871.696289,371.311066 
	C873.359619,374.413147 874.853271,378.100586 874.858887,381.525208 
	C875.024841,481.844452 874.981384,582.164062 875.009094,682.483582 
	C875.012329,694.097595 868.957214,701.389954 859.252563,706.953979 
	C818.814392,730.138611 778.502930,753.544983 738.200928,776.966309 
	C706.937256,795.135071 675.764648,813.460327 644.534424,831.686768 
	C633.933105,837.873840 623.314697,844.033447 612.637756,850.088684 
	C605.253906,854.276367 597.703308,854.253723 590.330566,850.072510 
	C580.376221,844.427124 570.517578,838.612976 560.300598,832.684387 
M754.165344,629.660156 
	C759.250427,626.822021 764.253967,623.824585 769.435181,621.174316 
	C787.851440,611.754395 788.080627,611.473877 788.079590,590.982056 
	C788.076111,521.210938 788.034363,451.439728 788.140076,381.668762 
	C788.147156,376.981201 786.830322,374.010864 782.516113,371.704285 
	C767.837891,363.856567 753.354248,355.644531 738.807983,347.550568 
	C710.151794,331.605408 681.525940,315.605621 652.843384,299.708099 
	C635.958496,290.349548 618.988831,281.144104 601.463867,271.750153 
	C600.048584,272.160126 598.507507,272.336273 597.238831,273.018768 
	C590.055603,276.883209 582.941406,280.875946 575.796692,284.812164 
	C547.654846,300.316376 519.513550,315.821564 491.365845,331.315186 
	C467.009674,344.721863 442.688385,358.193115 418.244293,371.437622 
	C413.873199,373.806030 412.362488,376.697083 412.374481,381.700439 
	C412.545410,453.105804 412.595551,524.511963 412.383698,595.917053 
	C412.353241,606.168457 416.182129,612.888855 425.413910,617.328125 
	C433.184875,621.064880 440.499207,625.751221 447.484192,630.440918 
	C438.276398,635.809326 428.989075,641.046997 419.883362,646.583313 
	C410.954956,652.011902 409.717285,662.482788 417.055237,669.311646 
	C418.494751,670.651306 420.293610,671.638733 422.014923,672.636475 
	C441.727356,684.063293 461.449982,695.472534 481.183228,706.863342 
	C517.645386,727.910767 554.230042,748.750061 590.495300,770.131104 
	C598.493591,774.846741 605.082458,774.454285 612.745239,769.971069 
	C656.873413,744.153015 701.141663,718.574585 745.352783,692.898254 
	C757.161926,686.039856 769.034302,679.282593 780.698914,672.185242 
	C791.057739,665.882507 790.908325,652.426758 780.601013,646.216614 
	C771.636230,640.815430 762.616150,635.505920 754.165344,629.660156 
z"/>
<path fill="#FFFFFF" opacity="0.000000" stroke="none" 
	d="
M215.498230,928.309082 
	C219.893188,931.459961 220.788544,935.923645 220.909119,940.420227 
	C221.150085,949.404907 220.783737,958.406738 221.061813,967.389282 
	C221.217880,972.430115 218.087006,971.906616 214.867706,972.027649 
	C211.323288,972.160950 208.725922,971.858643 208.931976,967.121094 
	C209.235565,960.141418 209.044769,953.137878 208.966263,946.145569 
	C208.946045,944.344910 209.077820,942.231689 208.219101,940.823364 
	C206.896378,938.653870 204.675140,935.337952 203.021561,935.442993 
	C200.210175,935.621643 196.878525,937.528076 195.019699,939.755249 
	C193.433243,941.656128 193.195374,945.011353 193.087372,947.751892 
	C192.825333,954.401978 192.819778,961.074097 193.032700,967.727051 
	C193.186646,972.537354 190.026413,972.008606 187.028793,971.986877 
	C184.078781,971.965393 180.928925,972.637085 180.967758,967.785095 
	C181.110382,949.970459 181.120956,932.153259 180.961304,914.338928 
	C180.914398,909.106262 184.382004,910.162476 187.403824,909.998291 
	C190.734467,909.817261 193.285217,910.158691 193.054138,914.650146 
	C192.765900,920.252563 192.984924,925.881165 192.984924,932.895447 
	C200.004684,925.474670 207.143570,923.964600 215.498230,928.309082 
z"/>
<path fill="#FFFFFF" opacity="0.000000" stroke="none" 
	d="
M528.999939,958.981812 
	C528.997925,961.807251 528.781128,964.160400 529.039368,966.460205 
	C529.544128,970.953796 527.530457,971.978638 523.307922,972.145325 
	C518.141052,972.349304 516.650085,970.519775 516.908691,965.567017 
	C517.272461,958.599182 517.204590,951.588318 516.901611,944.614075 
	C516.725037,940.548950 516.514160,935.946655 510.968750,935.104980 
	C506.625702,934.445740 502.464233,937.306396 501.785706,942.876770 
	C500.867706,950.413147 501.157501,958.101013 501.010651,965.725525 
	C500.889282,972.028442 500.898254,971.796204 494.548767,972.082275 
	C490.057037,972.284607 488.876923,970.576050 488.925659,966.310242 
	C489.119507,949.343689 489.198395,932.370178 488.893372,915.406921 
	C488.799011,910.157959 491.396790,910.037415 495.324310,909.904419 
	C499.628052,909.758667 501.348145,911.100220 501.071075,915.565247 
	C500.743530,920.843811 500.994141,926.158264 500.994141,931.715820 
	C504.661438,929.695862 507.655884,927.174438 511.065186,926.332092 
	C521.297302,923.803955 528.617126,929.784058 528.949829,940.519470 
	C529.135315,946.502869 528.994019,952.496399 528.999939,958.981812 
z"/>
<path fill="#8C54A1" opacity="0.000000" stroke="none" 
	d="
M372.230225,972.159058 
	C366.003662,968.924072 362.932129,962.765076 364.242615,956.805847 
	C365.788452,949.776489 370.565704,945.751831 378.389954,945.082458 
	C380.871155,944.870239 383.440308,945.328186 385.860962,944.886292 
	C387.620636,944.565125 390.655334,943.180176 390.609161,942.422668 
	C390.420227,939.322327 390.820892,935.201538 386.588470,934.315369 
	C384.737335,933.927856 381.283722,934.513184 380.735443,935.680054 
	C377.444611,942.683228 371.796631,939.236450 366.783081,939.883179 
	C366.576080,933.995911 369.797668,930.429016 373.869629,928.278564 
	C380.639465,924.703308 388.119171,924.631470 395.010468,927.833557 
	C401.734283,930.958008 403.045349,937.441101 403.006531,944.257324 
	C402.977142,949.419312 402.723450,954.607910 403.181793,959.729919 
	C403.346405,961.569214 405.283478,963.259888 406.444366,964.996521 
	C407.247589,966.198242 408.899689,967.478577 408.747864,968.515076 
	C408.540771,969.928589 407.247925,971.783569 405.948914,972.331848 
	C400.537201,974.616577 396.330444,972.737305 391.523010,966.109863 
	C386.580933,972.312073 380.289154,974.608093 372.230225,972.159058 
M388.156433,951.067261 
	C383.975098,951.090149 379.252106,950.937866 377.616791,955.551453 
	C376.813843,957.816711 377.569611,962.088928 379.245331,963.446106 
	C381.928009,965.618835 385.873260,964.579773 387.850769,961.400574 
	C389.738953,958.364990 392.995300,955.024902 388.156433,951.067261 
z"/>
<path fill="#8C54A1" opacity="0.000000" stroke="none" 
	d="
M344.877197,944.505615 
	C345.006622,951.973328 345.006653,951.980225 337.861450,951.996765 
	C332.539062,952.009094 327.208130,951.826416 321.898163,952.083984 
	C319.656342,952.192688 317.458557,953.209045 315.240753,953.812866 
	C316.123108,956.588257 316.367493,959.849243 318.028625,962.031921 
	C320.949585,965.870300 326.507935,965.633606 330.664093,962.938721 
	C332.980408,961.436829 335.898743,960.604370 338.657867,960.147888 
	C340.151581,959.900696 341.880737,961.076477 343.503723,961.610352 
	C342.717316,963.186829 342.165527,964.945618 341.105591,966.309448 
	C335.225037,973.876160 322.873840,974.479553 314.898621,971.762939 
	C307.154816,969.125061 302.298615,961.088684 301.983246,951.753967 
	C301.698425,943.322754 302.704041,935.287048 310.165161,930.000183 
	C323.240601,920.734924 339.035309,926.113098 343.928650,941.239685 
	C344.234497,942.185181 344.528564,943.134399 344.877197,944.505615 
M318.967102,943.977905 
	C322.624512,943.966431 326.311615,944.206726 329.920135,943.781067 
	C330.926788,943.662354 332.617462,941.402466 332.431702,940.420532 
	C331.335419,934.626038 323.204895,931.820007 318.475739,935.376770 
	C314.840485,938.110962 314.647156,942.429382 318.967102,943.977905 
z"/>
<path fill="#8C54A1" opacity="0.000000" stroke="none" 
	d="
M748.202393,926.840454 
	C767.007385,923.169922 775.600769,931.832520 776.992615,947.402771 
	C777.303223,950.877014 775.799133,952.128113 772.371765,952.033997 
	C766.221741,951.865112 760.057373,951.839661 753.912048,952.083557 
	C751.669861,952.172607 749.464905,953.200012 747.242920,953.799316 
	C748.121521,956.576233 748.362244,959.836731 750.019592,962.023438 
	C752.931335,965.864990 758.501526,965.637695 762.655701,962.945740 
	C764.973267,961.443848 767.889160,960.607056 770.648071,960.147888 
	C772.144104,959.898804 773.876465,961.070435 775.502258,961.601257 
	C774.718323,963.178711 774.170715,964.939819 773.111267,966.303162 
	C767.227173,973.875061 754.889099,974.480591 746.903564,971.764282 
	C739.157898,969.129639 734.213013,961.093201 734.008789,951.755188 
	C733.703003,937.773865 737.397156,931.131287 748.202393,926.840454 
M763.878357,938.784851 
	C761.846497,934.589539 758.114075,932.953369 754.089478,934.283203 
	C751.558655,935.119568 749.335022,937.773560 747.682251,940.112732 
	C746.223206,942.177856 747.389526,943.904968 750.118958,943.936035 
	C753.910278,943.979126 757.702332,943.968994 761.494019,943.956726 
	C764.822388,943.945923 765.557190,942.356873 763.878357,938.784851 
z"/>
<path fill="#8C54A1" opacity="0.000000" stroke="none" 
	d="
M1085.069946,946.470581 
	C1084.855225,950.658081 1085.201416,954.585999 1084.257324,958.174438 
	C1081.329346,969.304626 1071.997437,974.561523 1059.000488,972.929321 
	C1049.164307,971.694092 1042.412109,963.554565 1041.955933,952.791260 
	C1041.634155,945.197815 1041.679810,937.796936 1047.569092,931.950012 
	C1054.995239,924.577332 1064.105225,924.501465 1073.086914,927.347534 
	C1081.728760,930.085754 1084.917847,937.340454 1085.069946,946.470581 
M1071.197388,939.588867 
	C1069.755127,935.495300 1066.406250,933.953430 1062.598145,934.443420 
	C1058.278931,934.999329 1055.337646,937.854187 1055.090210,942.437195 
	C1054.835083,947.162537 1054.836182,951.924561 1055.106689,956.648682 
	C1055.352051,960.931396 1059.422852,964.861877 1063.065308,964.878357 
	C1067.349365,964.897827 1071.592896,961.478821 1071.843018,956.942261 
	C1072.147827,951.414062 1071.709229,945.844849 1071.197388,939.588867 
z"/>
<path fill="#8C54A1" opacity="0.000000" stroke="none" 
	d="
M590.000000,962.918213 
	C589.999573,963.905396 590.105835,964.433716 589.981140,964.900391 
	C589.311523,967.406616 591.830566,971.280334 586.850830,971.951660 
	C580.547485,972.801392 578.884644,971.971069 577.694031,968.156494 
	C573.081543,969.766296 568.560791,972.203979 563.811340,972.791016 
	C557.415344,973.581665 552.358521,969.065979 551.180115,962.644836 
	C550.495300,958.913208 550.152161,955.084045 550.049622,951.288147 
	C549.874146,944.794495 550.165955,938.287231 549.952148,931.795837 
	C549.827698,928.015564 551.353821,926.627197 554.959473,926.990845 
	C556.279541,927.123962 557.628967,927.104004 558.955078,927.011658 
	C562.023682,926.797852 563.039551,928.304932 563.007446,931.208557 
	C562.922913,938.872375 562.959167,946.538330 563.033508,954.202515 
	C563.049377,955.835815 562.924683,957.817017 563.758728,959.016174 
	C565.082825,960.920105 567.024231,963.351868 568.956848,963.600769 
	C570.813538,963.839844 573.924072,962.071594 574.826294,960.327942 
	C576.514648,957.065002 577.566284,953.227539 577.864746,949.546448 
	C578.347900,943.586365 578.225647,937.549500 577.947205,931.564209 
	C577.733459,926.970215 580.444336,926.883972 583.689453,926.994629 
	C586.791199,927.100464 590.158447,926.270081 590.047852,931.439514 
	C589.827026,941.765564 589.993469,952.099976 590.000000,962.918213 
z"/>
<path fill="#8C54A1" opacity="0.000000" stroke="none" 
	d="
M639.683105,926.020508 
	C647.608459,927.483093 651.636658,931.837036 651.894897,939.785034 
	C652.197510,949.097168 651.832886,958.429382 652.033936,967.747009 
	C652.138062,972.569519 648.992676,971.995300 646.011414,971.986572 
	C643.049316,971.977905 639.837036,972.612427 639.969360,967.769592 
	C640.169373,960.450928 640.035278,953.122131 639.986084,945.798035 
	C639.941223,939.116882 637.522705,935.169434 633.516785,935.075012 
	C628.646606,934.960388 624.260376,939.791321 624.073364,945.968994 
	C623.861877,952.954407 623.733582,959.963745 624.079529,966.937439 
	C624.331909,972.024841 621.451843,972.019409 617.819763,972.054382 
	C614.227783,972.089050 611.715149,971.760437 611.932373,967.075195 
	C612.240417,960.431091 612.002441,953.761719 612.000427,947.103149 
	C611.998474,940.672607 612.000000,934.242004 612.000000,927.714233 
	C619.680176,925.725159 621.863342,926.510498 624.220398,932.996277 
	C628.203613,928.078796 632.992920,925.229065 639.683105,926.020508 
z"/>
<path fill="#FFFFFF" opacity="0.000000" stroke="none" 
	d="
M892.186157,970.365479 
	C883.021118,974.274597 874.138062,974.274902 865.315247,970.619019 
	C861.168640,968.900757 859.043152,965.508484 858.197876,960.818420 
	C863.001953,959.641968 867.398743,956.721619 871.136780,963.062500 
	C872.861267,965.987793 882.898682,965.827148 885.698242,963.467590 
	C886.697876,962.625000 887.854065,960.767456 887.542786,959.843506 
	C887.039062,958.348450 885.606384,956.576233 884.171021,956.092224 
	C879.165955,954.404297 873.891479,953.507629 868.903198,951.779724 
	C859.756836,948.611389 857.014465,940.569336 861.939087,932.257874 
	C862.275513,931.690063 862.584290,931.084778 863.020874,930.600464 
	C871.096130,921.642395 893.140137,925.518066 897.486877,936.648499 
	C892.895203,939.985718 889.746521,939.933716 885.872192,936.456421 
	C882.823669,933.720337 876.113342,933.036438 872.840027,935.391663 
	C871.943176,936.036804 871.094849,937.632385 871.251343,938.630981 
	C871.438782,939.827576 872.513672,941.478333 873.575439,941.838684 
	C877.480408,943.164062 881.553833,943.983582 885.536133,945.093140 
	C890.388550,946.445068 895.232056,948.057129 897.737488,952.892822 
	C900.957336,959.107239 898.792297,965.820984 892.186157,970.365479 
z"/>
<path fill="#FFFFFF" opacity="0.000000" stroke="none" 
	d="
M691.867798,915.228760 
	C692.562561,917.989624 693.280518,920.674805 693.155823,923.320374 
	C693.029907,925.993713 693.865112,927.019226 696.428589,926.976257 
	C698.924683,926.934326 701.424255,927.060974 703.918945,926.992249 
	C706.857544,926.911377 709.101501,927.167358 709.036987,931.145264 
	C708.976624,934.872009 706.836426,935.037659 704.131165,935.000305 
	C700.674377,934.952637 697.216492,934.988708 693.800171,934.988708 
	C693.800171,943.219666 693.923645,950.837708 693.757812,958.449463 
	C693.642395,963.748108 696.948425,964.852905 701.126221,964.914734 
	C702.915344,964.941223 704.751770,964.043823 706.494507,964.232727 
	C707.998413,964.395813 710.352173,965.226685 710.650269,966.251160 
	C711.289429,968.447449 711.898315,971.619263 708.290100,972.226868 
	C701.062622,973.444092 693.700806,974.321655 686.864807,970.804382 
	C681.948059,968.274475 681.287231,963.192688 681.075806,958.340149 
	C680.815247,952.358093 680.929443,946.355530 681.021423,940.364014 
	C681.069519,937.230408 680.796753,934.832214 676.665894,934.738647 
	C675.764709,934.718262 674.234131,932.295349 674.238953,930.983459 
	C674.243713,929.679626 675.915283,927.207336 676.686951,927.271790 
	C681.630676,927.684448 683.313965,924.668579 683.797974,920.791443 
	C684.409424,915.893250 686.868591,914.184509 691.867798,915.228760 
z"/>
<path fill="#FFFFFF" opacity="0.000000" stroke="none" 
	d="
M450.431244,926.986816 
	C453.197754,927.002991 455.531189,927.109985 457.854401,927.000305 
	C460.796722,926.861389 462.008301,928.031860 462.018433,931.075378 
	C462.029053,934.265869 460.496399,935.077393 457.703369,935.002441 
	C454.075623,934.905151 450.443298,934.978699 446.768768,934.978699 
	C446.768768,943.145996 446.869293,950.753296 446.735321,958.356445 
	C446.637543,963.905579 450.179749,964.910767 454.517914,964.924866 
	C456.143280,964.930115 457.811890,964.058105 459.384796,964.240845 
	C460.917633,964.418762 463.349487,965.151917 463.627808,966.137817 
	C464.238129,968.299683 465.024902,971.524414 461.395508,972.166870 
	C454.016541,973.473022 446.490326,974.406006 439.553741,970.620972 
	C434.928192,968.097046 434.291748,963.152466 434.083221,958.486633 
	C433.808716,952.343445 433.923431,946.178284 434.022400,940.025024 
	C434.071075,936.998474 433.616516,934.964478 429.839569,934.736267 
	C428.829865,934.675232 427.317413,932.111267 427.255493,930.644958 
	C427.206787,929.490723 429.116608,927.171631 430.013184,927.240234 
	C434.791473,927.606323 435.891388,924.513794 436.850250,920.982300 
	C438.662628,914.307556 438.808533,914.234680 446.240601,915.791687 
	C446.240601,918.233826 446.495636,920.845093 446.176636,923.384216 
	C445.769714,926.623352 447.529449,927.053528 450.431244,926.986816 
z"/>
<path fill="#FFFFFF" opacity="0.000000" stroke="none" 
	d="
M138.389984,951.828369 
	C138.674744,955.237793 138.081863,958.762329 139.391907,961.307373 
	C140.360153,963.188354 143.713104,964.114563 146.187103,964.842957 
	C147.616547,965.263916 149.460800,964.076965 151.025711,964.291077 
	C152.691101,964.518799 155.252289,965.196472 155.636536,966.299744 
	C156.381714,968.439209 156.861832,971.654663 153.258759,972.242859 
	C146.026276,973.423523 138.654846,974.341614 131.823639,970.781372 
	C126.920746,968.226074 126.286263,963.135071 126.074821,958.284668 
	C125.813904,952.299316 125.909866,946.292786 126.028122,940.298889 
	C126.091545,937.084229 125.654892,934.827087 121.597191,934.725281 
	C120.715439,934.703125 119.214394,932.232727 119.239174,930.913208 
	C119.263489,929.618652 120.971718,927.193848 121.761917,927.264587 
	C126.792786,927.714966 127.927841,924.460938 128.902786,920.723572 
	C130.550842,914.405884 130.582993,914.414246 137.904968,915.604248 
	C138.054688,917.569580 138.665985,919.732361 138.281586,921.700745 
	C137.318039,926.634705 139.836182,927.363403 143.793503,927.027954 
	C145.777252,926.859802 147.792633,927.100708 149.786102,927.002441 
	C152.667969,926.860535 154.016922,927.906555 154.019394,931.016541 
	C154.021896,934.159180 152.602798,935.087158 149.753311,935.003540 
	C146.117325,934.896912 142.475845,934.977661 138.328735,934.977661 
	C138.328735,940.844116 138.328735,946.183716 138.389984,951.828369 
z"/>
<path fill="#FFFFFF" opacity="0.000000" stroke="none" 
	d="
M1009.000000,948.992676 
	C1009.005981,952.816895 1009.166504,956.151733 1008.976074,959.466309 
	C1008.772278,963.010803 1010.364929,964.249573 1013.709778,964.014343 
	C1015.694641,963.874756 1017.702026,964.086243 1019.693481,964.002319 
	C1022.474548,963.885132 1024.030884,964.711060 1024.018433,967.910767 
	C1024.006470,970.939209 1022.821228,972.028687 1019.870300,972.007996 
	C1008.230286,971.926453 996.589233,971.942688 984.948914,971.994019 
	C982.291565,972.005798 981.020447,971.073120 980.993774,968.228455 
	C980.966614,965.325684 981.918335,964.010071 984.989624,963.967529 
	C988.745300,963.915649 994.396301,964.766968 995.794556,962.794312 
	C997.814331,959.944763 996.822449,954.911194 996.976318,950.804321 
	C997.094543,947.649231 996.710693,944.453613 997.061951,941.333679 
	C997.638062,936.217041 995.585205,934.355652 990.595276,934.955200 
	C987.364929,935.343323 984.184570,934.929871 985.183289,930.423157 
	C985.469421,929.132324 987.184448,927.277527 988.336243,927.208252 
	C993.969788,926.868958 999.635315,927.104614 1005.287659,927.015686 
	C1008.161499,926.970520 1009.021729,928.420410 1008.993713,931.033630 
	C1008.931213,936.853149 1008.990356,942.673950 1009.000000,948.992676 
z"/>
<path fill="#FFFFFF" opacity="0.000000" stroke="none" 
	d="
M254.694031,971.939575 
	C253.077484,971.972351 251.901489,971.879822 250.749054,972.004700 
	C246.934509,972.418213 245.870270,970.543396 245.958282,967.005798 
	C246.132111,960.018433 246.156311,953.019165 245.952972,946.033203 
	C245.780472,940.107178 245.200684,934.192993 244.793365,928.158569 
	C251.562622,925.045349 255.548111,926.559631 257.742645,934.076050 
	C261.581451,926.867065 267.637817,925.485657 274.726074,925.930969 
	C281.014374,926.325928 281.194000,926.201172 280.968475,932.449707 
	C280.922058,933.735596 280.651672,935.013428 280.454407,936.525513 
	C277.882477,936.339417 275.610077,935.992554 273.346252,936.041931 
	C262.072418,936.287598 259.359924,942.470276 258.102020,954.131287 
	C257.622559,958.575928 258.226807,963.131958 257.849670,967.596069 
	C257.722534,969.100708 256.089935,970.478210 254.694031,971.939575 
z"/>
<path fill="#FFFFFF" opacity="0.000000" stroke="none" 
	d="
M813.945801,949.112793 
	C813.601868,955.160583 812.883423,960.799438 813.117493,966.398499 
	C813.327026,971.409302 811.030396,972.100342 806.853699,972.098328 
	C802.807922,972.096313 800.678589,971.307556 800.917969,966.606812 
	C801.264709,959.797241 801.156311,952.952087 800.954102,946.130615 
	C800.773926,940.051208 800.202515,933.983398 799.801575,927.877014 
	C808.016357,925.394165 810.541260,926.431641 812.669128,933.979248 
	C816.640198,927.092285 822.543091,925.434326 829.646790,925.920410 
	C836.053101,926.358643 836.270813,926.245972 835.962097,932.872131 
	C835.909729,933.997375 835.631348,935.112061 835.660950,934.921692 
	C829.483032,936.399475 823.618408,936.867310 818.780823,939.342346 
	C816.251099,940.636719 815.526001,945.458130 813.945801,949.112793 
z"/>
<path fill="#FFFFFF" opacity="0.000000" stroke="none" 
	d="
M937.333191,959.058960 
	C938.115723,959.026978 938.446167,959.015320 938.776550,959.013733 
	C946.987000,958.974731 948.773010,961.193542 946.803040,969.350708 
	C946.566833,970.328735 945.368835,971.345947 944.369751,971.791321 
	C943.391541,972.227539 942.074402,972.120239 940.947388,971.960205 
	C938.763428,971.649963 934.884216,971.447632 934.739929,970.651184 
	C934.114624,967.199463 934.523682,963.545776 934.750610,959.977783 
	C934.772339,959.636047 936.138794,959.379944 937.333191,959.058960 
z"/>
<path fill="#FFFFFF" opacity="0.000000" stroke="none" 
	d="
M998.580688,918.669678 
	C998.080505,915.918030 997.999573,913.302124 997.918701,910.686157 
	C1001.164368,910.593506 1004.476868,910.125732 1007.606812,910.683105 
	C1008.349304,910.815247 1008.838440,914.403381 1008.732056,916.363159 
	C1008.683044,917.266724 1007.006531,918.641479 1005.913574,918.811829 
	C1003.664001,919.162537 1001.310669,918.846863 998.580688,918.669678 
z"/>
<path fill="#FFFFFF" opacity="0.000000" stroke="none" 
	d="
M448.015717,630.017151 
	C440.499207,625.751221 433.184875,621.064880 425.413910,617.328125 
	C416.182129,612.888855 412.353241,606.168457 412.383698,595.917053 
	C412.595551,524.511963 412.545410,453.105804 412.374481,381.700439 
	C412.362488,376.697083 413.873199,373.806030 418.244293,371.437622 
	C442.688385,358.193115 467.009674,344.721863 491.365845,331.315186 
	C519.513550,315.821564 547.654846,300.316376 575.796692,284.812164 
	C582.941406,280.875946 590.055603,276.883209 597.238831,273.018768 
	C598.507507,272.336273 600.048584,272.160126 601.608093,272.205505 
	C601.507019,274.467255 601.051086,276.273193 601.047180,278.080078 
	C600.949646,323.711609 600.867920,369.343262 600.850403,414.974884 
	C600.833923,457.931091 600.893982,500.887299 600.523743,543.890015 
	C597.161316,544.949524 593.929260,545.502930 591.269287,547.043884 
	C544.161011,574.334045 497.122406,601.744446 449.803955,629.219727 
	C449.031342,629.546143 448.523529,629.781677 448.015717,630.017151 
z"/>
<path fill="#FFFFFF" opacity="0.000000" stroke="none" 
	d="
M600.920349,543.843506 
	C600.893982,500.887299 600.833923,457.931091 600.850403,414.974884 
	C600.867920,369.343262 600.949646,323.711609 601.047180,278.080078 
	C601.051086,276.273193 601.507019,274.467255 601.904785,272.265320 
	C618.988831,281.144104 635.958496,290.349548 652.843384,299.708099 
	C681.525940,315.605621 710.151794,331.605408 738.807983,347.550568 
	C753.354248,355.644531 767.837891,363.856567 782.516113,371.704285 
	C786.830322,374.010864 788.147156,376.981201 788.140076,381.668762 
	C788.034363,451.439728 788.076111,521.210938 788.079590,590.982056 
	C788.080627,611.473877 787.851440,611.754395 769.435181,621.174316 
	C764.253967,623.824585 759.250427,626.822021 753.698059,629.897949 
	C753.230774,630.135803 752.840149,630.103821 752.597168,629.878296 
	C749.958740,628.150635 747.606445,626.573975 745.161377,625.157532 
	C705.837585,602.376343 666.555664,579.521912 627.126343,556.924683 
	C618.669678,552.078064 609.669922,548.179016 600.920349,543.843506 
z"/>
<path fill="#FFFFFF" opacity="0.000000" stroke="none" 
	d="
M752.840149,630.103821 
	C752.840149,630.103821 753.230774,630.135803 753.425659,630.145874 
	C762.616150,635.505920 771.636230,640.815430 780.601013,646.216614 
	C790.908325,652.426758 791.057739,665.882507 780.698914,672.185242 
	C769.034302,679.282593 757.161926,686.039856 745.352783,692.898254 
	C701.141663,718.574585 656.873413,744.153015 612.745239,769.971069 
	C605.082458,774.454285 598.493591,774.846741 590.495300,770.131104 
	C554.230042,748.750061 517.645386,727.910767 481.183228,706.863342 
	C461.449982,695.472534 441.727356,684.063293 422.014923,672.636475 
	C420.293610,671.638733 418.494751,670.651306 417.055237,669.311646 
	C409.717285,662.482788 410.954956,652.011902 419.883362,646.583313 
	C428.989075,641.046997 438.276398,635.809326 447.749939,630.229004 
	C448.523529,629.781677 449.031342,629.546143 449.914764,629.404053 
	C459.968811,634.973450 469.558746,640.613342 479.341370,645.896362 
	C517.092285,666.283691 555.055237,686.285645 592.570923,707.095154 
	C600.337219,711.403015 606.221619,710.748901 613.376160,706.824158 
	C648.387268,687.618408 683.582764,668.749207 718.636047,649.619751 
	C730.156555,643.332703 741.445374,636.621216 752.840149,630.103821 
z"/>
<path fill="#FFFFFF" opacity="0.000000" stroke="none" 
	d="
M388.563629,951.112915 
	C392.995300,955.024902 389.738953,958.364990 387.850769,961.400574 
	C385.873260,964.579773 381.928009,965.618835 379.245331,963.446106 
	C377.569611,962.088928 376.813843,957.816711 377.616791,955.551453 
	C379.252106,950.937866 383.975098,951.090149 388.563629,951.112915 
z"/>
<path fill="#FFFFFF" opacity="0.000000" stroke="none" 
	d="
M318.529663,943.961426 
	C314.647156,942.429382 314.840485,938.110962 318.475739,935.376770 
	C323.204895,931.820007 331.335419,934.626038 332.431702,940.420532 
	C332.617462,941.402466 330.926788,943.662354 329.920135,943.781067 
	C326.311615,944.206726 322.624512,943.966431 318.529663,943.961426 
z"/>
<path fill="#FFFFFF" opacity="0.000000" stroke="none" 
	d="
M764.012329,939.145203 
	C765.557190,942.356873 764.822388,943.945923 761.494019,943.956726 
	C757.702332,943.968994 753.910278,943.979126 750.118958,943.936035 
	C747.389526,943.904968 746.223206,942.177856 747.682251,940.112732 
	C749.335022,937.773560 751.558655,935.119568 754.089478,934.283203 
	C758.114075,932.953369 761.846497,934.589539 764.012329,939.145203 
z"/>
<path fill="#FFFFFF" opacity="0.000000" stroke="none" 
	d="
M1071.394775,939.941162 
	C1071.709229,945.844849 1072.147827,951.414062 1071.843018,956.942261 
	C1071.592896,961.478821 1067.349365,964.897827 1063.065308,964.878357 
	C1059.422852,964.861877 1055.352051,960.931396 1055.106689,956.648682 
	C1054.836182,951.924561 1054.835083,947.162537 1055.090210,942.437195 
	C1055.337646,937.854187 1058.278931,934.999329 1062.598145,934.443420 
	C1066.406250,933.953430 1069.755127,935.495300 1071.394775,939.941162 
z"/>
<path fill="#FFFFFF" opacity="0.000000" stroke="none" 
	d="
M752.597168,629.878296 
	C741.445374,636.621216 730.156555,643.332703 718.636047,649.619751 
	C683.582764,668.749207 648.387268,687.618408 613.376160,706.824158 
	C606.221619,710.748901 600.337219,711.403015 592.570923,707.095154 
	C555.055237,686.285645 517.092285,666.283691 479.341370,645.896362 
	C469.558746,640.613342 459.968811,634.973450 450.179565,629.313171 
	C497.122406,601.744446 544.161011,574.334045 591.269287,547.043884 
	C593.929260,545.502930 597.161316,544.949524 600.523743,543.890015 
	C609.669922,548.179016 618.669678,552.078064 627.126343,556.924683 
	C666.555664,579.521912 705.837585,602.376343 745.161377,625.157532 
	C747.606445,626.573975 749.958740,628.150635 752.597168,629.878296 
z"/>
</svg>