<svg version="1.1" id="Layer_1" xmlns="http://www.w3.org/2000/svg" xmlns:xlink="http://www.w3.org/1999/xlink" x="0px" y="0px"
	  viewBox="0 0 594 667" enable-background="new 0 0 594 667" xml:space="preserve">
<path fill="#FFFFFF" opacity="0.000000" stroke="none" 
	d="
M1.000000,258.000000 
	C1.000000,172.016937 1.000000,86.533882 1.000000,1.025410 
	C198.943817,1.025410 396.887665,1.025410 594.915771,1.025410 
	C594.915771,223.233078 594.915771,445.466217 594.915771,667.849670 
	C397.000092,667.849670 199.000061,667.849670 1.000000,667.849670 
	C1.000000,531.445618 1.000000,394.972809 1.000000,258.000000 
M239.557114,620.970459 
	C255.805756,630.370850 272.094055,639.703552 288.286560,649.199646 
	C296.540466,654.040283 304.524933,654.028198 312.778076,649.166504 
	C334.536194,636.349365 356.363800,623.649719 378.193481,610.954407 
	C439.222015,575.462402 500.241180,539.953857 561.332947,504.570984 
	C569.328308,499.940308 573.237427,493.438293 573.257751,484.265228 
	C573.479492,384.148834 573.747620,284.032501 573.997009,183.916168 
	C574.019287,174.968842 570.138123,168.387970 562.290833,163.935150 
	C546.833313,155.164047 531.475830,146.216553 516.079590,137.337463 
	C448.163177,98.169548 380.209686,59.065517 312.376190,19.754505 
	C303.107544,14.383117 294.708099,14.831377 285.680176,20.099876 
	C229.018814,53.166168 172.270355,86.083252 115.540939,119.032883 
	C89.685150,134.050461 63.779785,148.982910 37.956959,164.056839 
	C30.886654,168.184097 26.770712,174.268661 26.750729,182.781433 
	C26.514925,283.227905 26.213030,383.674225 26.141562,484.120758 
	C26.138508,488.412018 27.106468,493.545807 29.584608,496.786194 
	C32.759720,500.937958 37.631641,504.074585 42.280121,506.774536 
	C107.771545,544.813843 173.349350,582.704407 239.557114,620.970459 
z"/>
<path fill="#8C54A1" opacity="1.000000" stroke="none" 
	d="
M239.231659,620.800781 
	C173.349350,582.704407 107.771545,544.813843 42.280121,506.774536 
	C37.631641,504.074585 32.759720,500.937958 29.584608,496.786194 
	C27.106468,493.545807 26.138508,488.412018 26.141562,484.120758 
	C26.213030,383.674225 26.514925,283.227905 26.750729,182.781433 
	C26.770712,174.268661 30.886654,168.184097 37.956959,164.056839 
	C63.779785,148.982910 89.685150,134.050461 115.540939,119.032883 
	C172.270355,86.083252 229.018814,53.166168 285.680176,20.099876 
	C294.708099,14.831377 303.107544,14.383117 312.376190,19.754505 
	C380.209686,59.065517 448.163177,98.169548 516.079590,137.337463 
	C531.475830,146.216553 546.833313,155.164047 562.290833,163.935150 
	C570.138123,168.387970 574.019287,174.968842 573.997009,183.916168 
	C573.747620,284.032501 573.479492,384.148834 573.257751,484.265228 
	C573.237427,493.438293 569.328308,499.940308 561.332947,504.570984 
	C500.241180,539.953857 439.222015,575.462402 378.193481,610.954407 
	C356.363800,623.649719 334.536194,636.349365 312.778076,649.166504 
	C304.524933,654.028198 296.540466,654.040283 288.286560,649.199646 
	C272.094055,639.703552 255.805756,630.370850 239.231659,620.800781 
M453.267853,429.489655 
	C461.580261,424.952271 469.752441,420.127960 478.252411,415.974487 
	C484.299805,413.019470 486.931885,408.263428 486.939972,402.085175 
	C487.037689,327.460541 487.035583,252.835709 486.881073,178.211288 
	C486.877380,176.438171 485.231354,173.933136 483.635315,173.017151 
	C472.687317,166.733963 461.513947,160.845581 450.477295,154.714523 
	C424.636169,140.359283 398.822937,125.953796 373.014862,111.539200 
	C359.967651,104.251930 347.002930,96.815758 333.914032,89.604652 
	C323.018066,83.601723 311.995239,77.829086 300.602631,71.470436 
	C297.224884,73.063721 293.765442,74.505638 290.483307,76.276131 
	C275.137512,84.554146 259.798859,92.847252 244.535767,101.276428 
	C220.706192,114.436516 196.953766,127.736198 173.141998,140.928650 
	C153.829254,151.628494 134.539825,162.374344 115.078438,172.798019 
	C111.996826,174.448563 111.406296,176.337570 111.408142,179.309265 
	C111.452972,251.482391 111.576851,323.655914 111.332756,395.828217 
	C111.296715,406.483643 115.372322,413.175171 124.926682,417.617706 
	C132.557602,421.165863 139.666748,425.836212 146.585983,430.540924 
	C137.228424,435.941895 127.859856,441.323853 118.517792,446.751495 
	C113.528481,449.650208 111.680595,454.130188 111.896324,459.770599 
	C112.098808,465.064636 114.288879,468.990387 119.009987,471.471222 
	C120.481850,472.244659 121.924202,473.076050 123.363197,473.909973 
	C153.850418,491.578094 184.310532,509.293152 214.828247,526.908447 
	C240.165726,541.533752 265.663635,555.883972 290.879700,570.714478 
	C297.159973,574.408203 302.751740,575.162598 309.055969,571.459961 
	C322.527100,563.547852 336.082611,555.779724 349.592102,547.932861 
	C377.187775,531.904114 404.781342,515.871582 432.365021,499.822296 
	C448.311249,490.544159 464.387878,481.477173 480.116577,471.842987 
	C490.180786,465.678436 489.905914,452.144379 479.908661,445.992096 
	C470.997498,440.508148 461.880157,435.359314 453.267853,429.489655 
z"/>
<path fill="#9472B2" opacity="1.000000" stroke="none" 
	d="
M147.007477,430.008484 
	C139.666748,425.836212 132.557602,421.165863 124.926682,417.617706 
	C115.372322,413.175171 111.296715,406.483643 111.332756,395.828217 
	C111.576851,323.655914 111.452972,251.482391 111.408142,179.309265 
	C111.406296,176.337570 111.996826,174.448563 115.078438,172.798019 
	C134.539825,162.374344 153.829254,151.628494 173.141998,140.928650 
	C196.953766,127.736198 220.706192,114.436516 244.535767,101.276428 
	C259.798859,92.847252 275.137512,84.554146 290.483307,76.276131 
	C293.765442,74.505638 297.224884,73.063721 300.513306,72.009827 
	C300.282654,74.522537 300.018921,76.495796 300.017914,78.469177 
	C299.994629,125.004349 300.039642,171.539566 299.979950,218.074677 
	C299.956146,236.637024 299.593903,255.199127 299.599152,273.761292 
	C299.605774,297.151337 299.830872,320.541290 299.566223,343.955139 
	C296.351440,344.881409 293.264252,345.317566 290.754913,346.759430 
	C269.161316,359.166901 247.680466,371.770477 226.149307,384.286865 
	C200.450287,399.226044 174.734818,414.136902 148.758789,429.142822 
	C147.996552,429.486572 147.502014,429.747528 147.007477,430.008484 
z"/>
<path fill="#9A8AC0" opacity="1.000000" stroke="none" 
	d="
M299.961731,343.931305 
	C299.830872,320.541290 299.605774,297.151337 299.599152,273.761292 
	C299.593903,255.199127 299.956146,236.637024 299.979950,218.074677 
	C300.039642,171.539566 299.994629,125.004349 300.017914,78.469177 
	C300.018921,76.495796 300.282654,74.522537 300.726288,72.251831 
	C311.995239,77.829086 323.018066,83.601723 333.914032,89.604652 
	C347.002930,96.815758 359.967651,104.251930 373.014862,111.539200 
	C398.822937,125.953796 424.636169,140.359283 450.477295,154.714523 
	C461.513947,160.845581 472.687317,166.733963 483.635315,173.017151 
	C485.231354,173.933136 486.877380,176.438171 486.881073,178.211288 
	C487.035583,252.835709 487.037689,327.460541 486.939972,402.085175 
	C486.931885,408.263428 484.299805,413.019470 478.252411,415.974487 
	C469.752441,420.127960 461.580261,424.952271 452.835938,429.768799 
	C452.404022,430.047943 451.951080,430.039429 451.766449,429.756836 
	C447.856506,427.292908 444.139984,425.096344 440.404358,422.932739 
	C420.427673,411.362610 400.446564,399.800171 380.466309,388.236145 
	C360.056274,376.423309 339.718689,364.482269 319.190460,352.878540 
	C313.055328,349.410614 306.386200,346.887360 299.961731,343.931305 
z"/>
<path fill="#9FA0CD" opacity="1.000000" stroke="none" 
	d="
M451.951080,430.039429 
	C451.951080,430.039429 452.404022,430.047943 452.628906,430.055298 
	C461.880157,435.359314 470.997498,440.508148 479.908661,445.992096 
	C489.905914,452.144379 490.180786,465.678436 480.116577,471.842987 
	C464.387878,481.477173 448.311249,490.544159 432.365021,499.822296 
	C404.781342,515.871582 377.187775,531.904114 349.592102,547.932861 
	C336.082611,555.779724 322.527100,563.547852 309.055969,571.459961 
	C302.751740,575.162598 297.159973,574.408203 290.879700,570.714478 
	C265.663635,555.883972 240.165726,541.533752 214.828247,526.908447 
	C184.310532,509.293152 153.850418,491.578094 123.363197,473.909973 
	C121.924202,473.076050 120.481850,472.244659 119.009987,471.471222 
	C114.288879,468.990387 112.098808,465.064636 111.896324,459.770599 
	C111.680595,454.130188 113.528481,449.650208 118.517792,446.751495 
	C127.859856,441.323853 137.228424,435.941895 146.796738,430.274719 
	C147.502014,429.747528 147.996552,429.486572 148.767319,429.397522 
	C150.629898,430.483215 152.203201,431.420593 153.804657,432.307098 
	C169.971954,441.256927 186.057312,450.359955 202.343063,459.088989 
	C214.437119,465.571350 226.876205,471.408295 239.000473,477.836670 
	C246.149887,481.627319 252.855957,486.251678 259.990509,490.073456 
	C271.936249,496.472473 284.247406,502.209534 296.013519,508.912109 
	C299.891785,511.121338 302.995453,511.600464 306.610657,509.676605 
	C325.936157,499.392487 345.259125,489.102417 364.516632,478.691681 
	C383.948944,468.186401 403.346497,457.614990 422.674530,446.919434 
	C432.529327,441.466125 442.198181,435.676849 451.951080,430.039429 
z"/>
<path fill="#A4B2D8" opacity="1.000000" stroke="none" 
	d="
M451.766449,429.756836 
	C442.198181,435.676849 432.529327,441.466125 422.674530,446.919434 
	C403.346497,457.614990 383.948944,468.186401 364.516632,478.691681 
	C345.259125,489.102417 325.936157,499.392487 306.610657,509.676605 
	C302.995453,511.600464 299.891785,511.121338 296.013519,508.912109 
	C284.247406,502.209534 271.936249,496.472473 259.990509,490.073456 
	C252.855957,486.251678 246.149887,481.627319 239.000473,477.836670 
	C226.876205,471.408295 214.437119,465.571350 202.343063,459.088989 
	C186.057312,450.359955 169.971954,441.256927 153.804657,432.307098 
	C152.203201,431.420593 150.629898,430.483215 149.035004,429.314728 
	C174.734818,414.136902 200.450287,399.226044 226.149307,384.286865 
	C247.680466,371.770477 269.161316,359.166901 290.754913,346.759430 
	C293.264252,345.317566 296.351440,344.881409 299.566223,343.955139 
	C306.386200,346.887360 313.055328,349.410614 319.190460,352.878540 
	C339.718689,364.482269 360.056274,376.423309 380.466309,388.236145 
	C400.446564,399.800171 420.427673,411.362610 440.404358,422.932739 
	C444.139984,425.096344 447.856506,427.292908 451.766449,429.756836 
z"/>
</svg>